<svg id="Group_7660" data-name="Group 7660" xmlns="http://www.w3.org/2000/svg" width="23.505" height="23.505" viewBox="0 0 23.505 23.505">
  <path id="Path_5409" data-name="Path 5409" d="M511.475,193.836h-2.112v-1.1a.735.735,0,1,0-1.469,0v1.1H497.611v-1.1a.735.735,0,1,0-1.469,0v1.1H494.03a3.034,3.034,0,0,0-3.03,3.03v15.609a3.034,3.034,0,0,0,3.03,3.03h17.445a3.033,3.033,0,0,0,3.03-3.03V196.866a3.033,3.033,0,0,0-3.03-3.03Zm1.561,18.639a1.561,1.561,0,0,1-1.561,1.561H494.03a1.561,1.561,0,0,1-1.561-1.561V200.309a.23.23,0,0,1,.23-.23h20.108a.23.23,0,0,1,.229.23Zm0,0" transform="translate(-491 -192)" fill="#0047ba"/>
</svg>
