<svg id="Group_9981" data-name="Group 9981" xmlns="http://www.w3.org/2000/svg" width="16.469" height="16.469" viewBox="0 0 16.469 16.469">
  <path id="Path_5409" data-name="Path 5409" d="M505.346,193.287h-1.48v-.772a.515.515,0,0,0-1.029,0v.772h-7.205v-.772a.515.515,0,0,0-1.029,0v.772h-1.48A2.125,2.125,0,0,0,491,195.41v10.936a2.125,2.125,0,0,0,2.123,2.123h12.223a2.125,2.125,0,0,0,2.123-2.123V195.41a2.125,2.125,0,0,0-2.123-2.123Zm1.094,13.059a1.094,1.094,0,0,1-1.094,1.094H493.123a1.094,1.094,0,0,1-1.094-1.094v-8.524a.161.161,0,0,1,.161-.161h14.089a.161.161,0,0,1,.161.161Zm0,0" transform="translate(-491 -192)"/>
</svg>
