<svg xmlns="http://www.w3.org/2000/svg" width="32.93" height="21.953" viewBox="0 0 32.93 21.953">
  <g id="Group_8090" data-name="Group 8090" transform="translate(0 -85.334)">
    <path id="Path_5745" data-name="Path 5745" d="M1.372,173.411H20.581a1.372,1.372,0,1,0,0-2.744H1.372a1.372,1.372,0,1,0,0,2.744Z" transform="translate(0 -79.845)" fill="#0047ba"/>
    <path id="Path_5746" data-name="Path 5746" d="M7.83,176.557l-5.488-5.488a1.372,1.372,0,0,0-1.94,1.94L5.89,178.5a1.372,1.372,0,1,0,1.94-1.94Z" transform="translate(0 -79.845)" fill="#0047ba"/>
    <path id="Path_5747" data-name="Path 5747" d="M2.342,93.164,7.83,87.676a1.372,1.372,0,0,0-1.94-1.94L.4,91.224a1.372,1.372,0,0,0,1.94,1.94Z" transform="translate(0 0)" fill="#0047ba"/>
    <path id="Path_5748" data-name="Path 5748" d="M191.248,298.667H172.039a1.372,1.372,0,0,0,0,2.744h19.209a1.372,1.372,0,1,0,0-2.744Z" transform="translate(-159.691 -199.613)" fill="#0047ba"/>
    <path id="Path_5749" data-name="Path 5749" d="M384.4,215.676l5.488,5.488a1.372,1.372,0,0,0,1.94-1.94l-5.488-5.488a1.372,1.372,0,1,0-1.94,1.94Z" transform="translate(-359.303 -119.768)" fill="#0047ba"/>
    <path id="Path_5750" data-name="Path 5750" d="M389.89,299.069l-5.488,5.488a1.372,1.372,0,0,0,1.94,1.94l5.488-5.488a1.372,1.372,0,0,0-1.94-1.94Z" transform="translate(-359.303 -199.612)" fill="#0047ba"/>
  </g>
</svg>
