<svg xmlns="http://www.w3.org/2000/svg" width="32" height="32" viewBox="0 0 32 32">
  <g id="Group_9962" data-name="Group 9962" transform="translate(-87 -275)">
    <path id="Path_5895" data-name="Path 5895" d="M411.464,15.7,403.856.481a.869.869,0,0,0-1.555,0L394.693,15.7a.87.87,0,0,0,.778,1.258h15.216a.869.869,0,0,0,.777-1.258m-8.386-1.091a.782.782,0,1,1,.783-.782.782.782,0,0,1-.783.782m.392-2.782h-.782L402.3,6.089h1.565Z" transform="translate(-299.602 282.999)" fill="#555b5a"/>
    <rect id="Rectangle_4708" data-name="Rectangle 4708" width="32" height="32" transform="translate(87 275)" fill="none"/>
  </g>
</svg>
