<svg xmlns="http://www.w3.org/2000/svg" width="41.829" height="24.302" viewBox="0 0 41.829 24.302">
  <g id="Group_8102" data-name="Group 8102" transform="translate(-1544.691 -220)">
    <g id="Group_8065" data-name="Group 8065" transform="translate(1580.167 229)">
      <path id="Path_5356" data-name="Path 5356" d="M614.354,334.611,612.743,333l-4.066,4.066L604.611,333,603,334.611l5.677,5.677Zm0,0" transform="translate(-608 -333)" fill="#0047ba"/>
    </g>
    <g id="Group_8087" data-name="Group 8087" transform="translate(1544.691 188.004)">
      <path id="Path_5739" data-name="Path 5739" d="M19.095,83.095H3.472V67.472H8.679V64H1.736A1.737,1.737,0,0,0,0,65.736V84.83a1.735,1.735,0,0,0,1.736,1.736H20.83a1.734,1.734,0,0,0,1.736-1.736V76.2H19.095Z" transform="translate(0 -30.268)" fill="#0047ba"/>
      <path id="Path_5740" data-name="Path 5740" d="M148.483,37.378,141.54,32.17a.869.869,0,0,0-1.389.694v2.6h-2.6A9.557,9.557,0,0,0,128,45.016a.868.868,0,0,0,1.644.389l.2-.408a7.768,7.768,0,0,1,6.987-4.321h3.316v2.6a.868.868,0,0,0,1.389.694l6.943-5.208a.868.868,0,0,0,0-1.389Z" transform="translate(-121.057 0)" fill="#0047ba"/>
    </g>
  </g>
</svg>
