<svg xmlns="http://www.w3.org/2000/svg" width="25.253" height="20.562" viewBox="0 0 25.253 20.562">
  <path id="Path_5952" data-name="Path 5952" d="M756.539,410.506a4.072,4.072,0,1,1-4.074-4.074,4.079,4.079,0,0,1,4.074,4.074Zm8.553-5.785v11.57a2.791,2.791,0,0,1-2.793,2.792H742.631a2.793,2.793,0,0,1-2.792-2.792v-11.57a2.793,2.793,0,0,1,2.792-2.792h3.437v-.965a2.444,2.444,0,0,1,2.444-2.444h7.912a2.444,2.444,0,0,1,2.444,2.444v.965H762.3a2.791,2.791,0,0,1,2.793,2.792Zm-6.46,5.785a6.167,6.167,0,1,0-6.166,6.166,6.171,6.171,0,0,0,6.166-6.166Zm0,0" transform="translate(-739.839 -398.521)" fill="#0047ba"/>
</svg>
