<svg id="Group_7661" data-name="Group 7661" xmlns="http://www.w3.org/2000/svg" width="23.939" height="23.935" viewBox="0 0 23.939 23.935">
  <path id="Path_5564" data-name="Path 5564" d="M534.98,511.837a1.1,1.1,0,0,0-1.1-1.1H525.1a1.1,1.1,0,0,0-1.1,1.1v1.116h10.98Zm0,0" transform="translate(-523.997 -489.018)" fill="#0047ba"/>
  <path id="Path_5565" data-name="Path 5565" d="M692.421,362.67a7.661,7.661,0,0,0-1.273,1.832l9.038,9.038a1.1,1.1,0,0,0,1.553,0l1.553-1.553a1.1,1.1,0,0,0,0-1.553l-9.038-9.035a7.486,7.486,0,0,0-1.832,1.272Zm0,0" transform="translate(-679.674 -349.926)" fill="#0047ba"/>
  <path id="Path_5566" data-name="Path 5566" d="M591.986,262.234a9.513,9.513,0,0,1-2.838,1.82l5.675,5.675a9.67,9.67,0,0,1,1.822-2.837,9.532,9.532,0,0,1,2.839-1.82l-5.676-5.674a9.684,9.684,0,0,1-1.822,2.836Zm0,0" transform="translate(-584.674 -254.926)" fill="#0047ba"/>
  <path id="Path_5567" data-name="Path 5567" d="M660.049,196.1l1.553-1.552a1.1,1.1,0,0,1,1.553,0l6.211,6.21a1.1,1.1,0,0,1,0,1.552l-1.553,1.553a1.1,1.1,0,0,1-1.553,0l-6.211-6.21a1.1,1.1,0,0,1,0-1.553Zm0,0" transform="translate(-650.409 -194.228)" fill="#0047ba"/>
  <path id="Path_5568" data-name="Path 5568" d="M524.284,331.841l1.553-1.552a1.1,1.1,0,0,1,1.553,0l6.21,6.21a1.1,1.1,0,0,1,0,1.552l-1.553,1.553a1.1,1.1,0,0,1-1.553,0l-6.21-6.21a1.1,1.1,0,0,1,0-1.553Zm0,0" transform="translate(-523.961 -320.65)" fill="#0047ba"/>
</svg>
