<svg xmlns="http://www.w3.org/2000/svg" xmlns:xlink="http://www.w3.org/1999/xlink" width="40" height="39" viewBox="0 0 40 39">
  <defs>
    <filter id="Rectangle_3712" x="0" y="9" width="30" height="30" filterUnits="userSpaceOnUse">
      <feOffset dy="2" input="SourceAlpha"/>
      <feGaussianBlur stdDeviation="1" result="blur"/>
      <feFlood flood-opacity="0.161"/>
      <feComposite operator="in" in2="blur"/>
      <feComposite in="SourceGraphic"/>
    </filter>
    <filter id="Ellipse_676" x="11" y="0" width="29" height="29" filterUnits="userSpaceOnUse">
      <feOffset dy="3" input="SourceAlpha"/>
      <feGaussianBlur stdDeviation="3" result="blur-2"/>
      <feFlood flood-opacity="0.161"/>
      <feComposite operator="in" in2="blur-2"/>
      <feComposite in="SourceGraphic"/>
    </filter>
  </defs>
  <g id="Group_9979" data-name="Group 9979" transform="translate(-316 -1385)">
    <g id="Group_7569" data-name="Group 7569" transform="translate(319 1395)">
      <g id="Group_7402" data-name="Group 7402">
        <g id="Group_7396" data-name="Group 7396">
          <g transform="matrix(1, 0, 0, 1, -3, -10)" filter="url(#Rectangle_3712)">
            <g id="Rectangle_3712-2" data-name="Rectangle 3712" transform="translate(3 10)" fill="#ce0058" stroke="#fff" stroke-width="1">
              <rect width="24" height="24" rx="3" stroke="none"/>
              <rect x="0.5" y="0.5" width="23" height="23" rx="2.5" fill="none"/>
            </g>
          </g>
        </g>
        <path id="Path_5562" data-name="Path 5562" d="M777.937,201.879l-3.8-1.461a1.928,1.928,0,0,1-1.236-1.826,1.712,1.712,0,0,1,1.682-1.7,1.688,1.688,0,0,1,1.694,1.689,1.448,1.448,0,1,0,2.895-.034,4.583,4.583,0,0,0-9.166.034v9.407a1.449,1.449,0,0,0,1.447,1.447h6.271a1.449,1.449,0,0,0,1.447-1.447V203.68a1.941,1.941,0,0,0-1.237-1.8Zm-1.205,5.631H772.42a.482.482,0,0,1,0-.965h4.312a.482.482,0,0,1,0,.965Zm0-1.93H772.42a.482.482,0,0,1,0-.965h4.312a.482.482,0,0,1,0,.965Zm0,0" transform="translate(-762.619 -189.519)" fill="#fff"/>
      </g>
    </g>
    <g transform="matrix(1, 0, 0, 1, 316, 1385)" filter="url(#Ellipse_676)">
      <g id="Ellipse_676-2" data-name="Ellipse 676" transform="translate(20 6)" fill="#fff" stroke="#ce0558" stroke-width="0.5">
        <circle cx="5.5" cy="5.5" r="5.5" stroke="none"/>
        <circle cx="5.5" cy="5.5" r="5.25" fill="none"/>
      </g>
    </g>
    <g id="Group_8278" data-name="Group 8278" transform="translate(288.269 1367.4)">
      <path id="Path_5791" data-name="Path 5791" d="M138.365,29.611a2.006,2.006,0,1,0-2.006-2.006A2.011,2.011,0,0,0,138.365,29.611Z" transform="translate(-85.176 0)" fill="#ce0558"/>
      <path id="Path_5792" data-name="Path 5792" d="M56.631,274.9a1.868,1.868,0,0,0-.2-.368,2.493,2.493,0,0,0-1.725-1.086.369.369,0,0,0-.254.061,2.138,2.138,0,0,1-2.522,0,.329.329,0,0,0-.254-.061,2.475,2.475,0,0,0-1.725,1.086,2.156,2.156,0,0,0-.2.368.186.186,0,0,0,.009.166,3.493,3.493,0,0,0,.236.35,3.329,3.329,0,0,0,.4.455,5.252,5.252,0,0,0,.4.35,3.994,3.994,0,0,0,4.764,0,3.85,3.85,0,0,0,.4-.35,4.04,4.04,0,0,0,.4-.455,3.07,3.07,0,0,0,.236-.35A.149.149,0,0,0,56.631,274.9Z" transform="translate(0 -243.686)" fill="#ce0558"/>
    </g>
  </g>
</svg>
