<svg xmlns="http://www.w3.org/2000/svg" width="38" height="38" viewBox="0 0 38 38">
  <g id="Group_8990" data-name="Group 8990" transform="translate(-1832 -164)" opacity="0.6">
    <g id="Group_8279" data-name="Group 8279" transform="translate(0 -378)">
      <rect id="Rectangle_4596" data-name="Rectangle 4596" width="38" height="38" transform="translate(1832 542)" fill="none"/>
    </g>
    <path id="Path_5937" data-name="Path 5937" d="M608.876,213.64c-3.774,0-7.2,2.065-9.722,5.419a.782.782,0,0,0,0,.933c2.525,3.358,5.948,5.423,9.722,5.423s7.2-2.065,9.722-5.419a.782.782,0,0,0,0-.933c-2.525-3.358-5.948-5.423-9.722-5.423Zm.271,10.033a4.155,4.155,0,1,1,3.875-3.875,4.157,4.157,0,0,1-3.875,3.875Zm-.125-1.915a2.237,2.237,0,1,1,2.089-2.089,2.234,2.234,0,0,1-2.089,2.089Zm0,0" transform="translate(1242 -36.64)" fill="#0047ba"/>
  </g>
</svg>
