<svg id="Group_7658" data-name="Group 7658" xmlns="http://www.w3.org/2000/svg" width="17.702" height="22.909" viewBox="0 0 17.702 22.909">
  <path id="Path_5423" data-name="Path 5423" d="M385.19,530.073a1.392,1.392,0,0,0,1.392-1.392V514.108H386.1c-.04,0-.082.005-.121.005h-3.812a1.961,1.961,0,0,1-1.96-1.96v-3.812a1.337,1.337,0,0,1,.008-.147v-.46h-9.941a1.392,1.392,0,0,0-1.392,1.392v19.556a1.392,1.392,0,0,0,1.392,1.392H385.19Zm-7.739-4.73a.658.658,0,1,1,0-1.315h4.867a.658.658,0,0,1,0,1.315Zm-4.867-3.357a.658.658,0,1,1,0-1.315h9.731a.658.658,0,0,1,0,1.315Zm9.731-4.88a.658.658,0,0,1,0,1.315h-9.731a.658.658,0,1,1,0-1.315Zm0,0" transform="translate(-368.88 -507.165)" fill="#0047ba"/>
  <path id="Path_5424" data-name="Path 5424" d="M467.491,513.466a.586.586,0,0,0,.415-1l-4.4-4.4a.569.569,0,0,0-.41-.174.586.586,0,0,0-.589.587v3.825a1.168,1.168,0,0,0,1.157,1.158Zm0,0" transform="translate(-450.394 -507.897)" fill="#0047ba"/>
</svg>
