<svg xmlns="http://www.w3.org/2000/svg" width="32" height="32" viewBox="0 0 32 32">
  <g id="Group_9963" data-name="Group 9963" transform="translate(-83 -327)">
    <g id="Group_9950" data-name="Group 9950">
      <g id="Group_8666" data-name="Group 8666" transform="translate(77 -74.596)">
        <g id="Group_8643" data-name="Group 8643" transform="translate(3.5 7.932)">
          <text id="_" data-name="$" transform="translate(15.5 415.25)" fill="#555b5a" font-size="10" font-family="OpenSans-Bold, Open Sans" font-weight="700"><tspan x="0" y="0">$</tspan></text>
        </g>
        <path id="Path_5891" data-name="Path 5891" d="M507.7,193.5h-1.722v-.9a.6.6,0,1,0-1.2,0v.9h-8.387v-.9a.6.6,0,1,0-1.2,0v.9h-1.722A2.474,2.474,0,0,0,491,195.969V208.7a2.474,2.474,0,0,0,2.471,2.471H507.7a2.474,2.474,0,0,0,2.471-2.471V195.969A2.474,2.474,0,0,0,507.7,193.5Zm1.273,15.2a1.273,1.273,0,0,1-1.273,1.273H493.471A1.273,1.273,0,0,1,492.2,208.7v-9.922a.187.187,0,0,1,.187-.187h16.4a.187.187,0,0,1,.187.187Zm0,0" transform="translate(-479 215.596)" fill="#555b5a"/>
      </g>
      <rect id="Rectangle_4709" data-name="Rectangle 4709" width="32" height="32" transform="translate(83 327)" fill="none"/>
    </g>
  </g>
</svg>
