<svg xmlns="http://www.w3.org/2000/svg" xmlns:xlink="http://www.w3.org/1999/xlink" width="26" height="26" viewBox="0 0 26 26">
  <defs>
    <filter id="Rectangle_3712" x="0" y="0" width="26" height="26" filterUnits="userSpaceOnUse">
      <feOffset dy="2" input="SourceAlpha"/>
      <feGaussianBlur stdDeviation="1" result="blur"/>
      <feFlood flood-opacity="0.161"/>
      <feComposite operator="in" in2="blur"/>
      <feComposite in="SourceGraphic"/>
    </filter>
  </defs>
  <g id="Group_7407" data-name="Group 7407" transform="translate(3 1)">
    <g transform="matrix(1, 0, 0, 1, -3, -1)" filter="url(#Rectangle_3712)">
      <g id="Rectangle_3712-2" data-name="Rectangle 3712" transform="translate(3 1)" fill="#00837b" stroke="#fff" stroke-width="1">
        <rect width="20" height="20" rx="3" stroke="none"/>
        <rect x="0.5" y="0.5" width="19" height="19" rx="2.5" fill="none"/>
      </g>
    </g>
    <g id="Group_7397" data-name="Group 7397" transform="translate(3.721 4.813)">
      <path id="Path_5514" data-name="Path 5514" d="M503.04,220.2l-.913-3.044a1.618,1.618,0,0,0-1.559-1.16h-6.114a1.618,1.618,0,0,0-1.559,1.16l-.913,3.044A1.629,1.629,0,0,0,491,221.7v3.255a.814.814,0,0,0,.814.814v.814a.814.814,0,0,0,.814.814h.814a.814.814,0,0,0,.814-.814v-.814h6.511v.814a.814.814,0,0,0,.814.814h.814a.814.814,0,0,0,.814-.814v-.814h0a.814.814,0,0,0,.814-.814V221.7a1.629,1.629,0,0,0-.982-1.492Zm-8.586-2.577h6.114l.733,2.442h-7.579Zm-.2,6.1a.814.814,0,1,1,.814-.814.814.814,0,0,1-.814.814Zm6.511,0a.814.814,0,1,1,.814-.814.814.814,0,0,1-.814.814Zm0,0" transform="translate(-491 -216)" fill="#fff"/>
    </g>
  </g>
</svg>
