<svg xmlns="http://www.w3.org/2000/svg" width="25.014" height="26" viewBox="0 0 25.014 26">
  <g id="Group_8702" data-name="Group 8702" transform="translate(-1790 -335)">
    <g id="Group_7657" data-name="Group 7657" transform="translate(1790 335)">
      <path id="Path_4508" data-name="Path 4508" d="M132.966,388.753a3.022,3.022,0,1,1,3.022-3.022A3.025,3.025,0,0,1,132.966,388.753Zm0-4.231a1.209,1.209,0,1,0,1.209,1.209A1.21,1.21,0,0,0,132.966,384.522Z" transform="translate(-123.665 -362.753)" fill="#0047ba"/>
      <path id="Path_4509" data-name="Path 4509" d="M324.317,388.753a3.022,3.022,0,1,1,3.022-3.022A3.025,3.025,0,0,1,324.317,388.753Zm0-4.231a1.209,1.209,0,1,0,1.209,1.209A1.21,1.21,0,0,0,324.317,384.522Z" transform="translate(-304.742 -362.753)" fill="#0047ba"/>
      <path id="Path_4510" data-name="Path 4510" d="M31.43,18.593H17.643a.994.994,0,0,1-.966-.822L13.786,2.644l-3.281-.623A1.018,1.018,0,0,1,9.715.834.987.987,0,0,1,10.861.015L14.8.763a1,1,0,0,1,.789.8l.9,4.685H33.728a.973.973,0,0,1,.771.385,1.047,1.047,0,0,1,.189.864l-2.3,10.3A.992.992,0,0,1,31.43,18.593Z" transform="translate(-9.698 0.002)" fill="#0047ba"/>
    </g>
    <text id="_" data-name="+" transform="translate(1801.176 353)" fill="#fff" font-size="14" font-family="OpenSans-Semibold, Open Sans" font-weight="600"><tspan x="0" y="0">+</tspan></text>
  </g>
</svg>
