<svg xmlns="http://www.w3.org/2000/svg" xmlns:xlink="http://www.w3.org/1999/xlink" width="41" height="39" viewBox="0 0 41 39">
  <defs>
    <filter id="Rectangle_3712" x="0" y="9" width="30" height="30" filterUnits="userSpaceOnUse">
      <feOffset dy="2" input="SourceAlpha"/>
      <feGaussianBlur stdDeviation="1" result="blur"/>
      <feFlood flood-opacity="0.161"/>
      <feComposite operator="in" in2="blur"/>
      <feComposite in="SourceGraphic"/>
    </filter>
    <filter id="Ellipse_677" x="12" y="0" width="29" height="29" filterUnits="userSpaceOnUse">
      <feOffset dy="3" input="SourceAlpha"/>
      <feGaussianBlur stdDeviation="3" result="blur-2"/>
      <feFlood flood-opacity="0.161"/>
      <feComposite operator="in" in2="blur-2"/>
      <feComposite in="SourceGraphic"/>
    </filter>
  </defs>
  <g id="Group_9978" data-name="Group 9978" transform="translate(-276 -1385)">
    <g id="Group_7414" data-name="Group 7414" transform="translate(10946 3405)">
      <g id="Group_7402" data-name="Group 7402" transform="translate(-10667 -2010)">
        <g id="Group_7396" data-name="Group 7396">
          <g transform="matrix(1, 0, 0, 1, -3, -10)" filter="url(#Rectangle_3712)">
            <g id="Rectangle_3712-2" data-name="Rectangle 3712" transform="translate(3 10)" fill="#782c86" stroke="#fff" stroke-width="1">
              <rect width="24" height="24" rx="3" stroke="none"/>
              <rect x="0.5" y="0.5" width="23" height="23" rx="2.5" fill="none"/>
            </g>
          </g>
        </g>
        <path id="Path_5515" data-name="Path 5515" d="M572.788,244q.029.694.058,1.388H571.9q.029-.694.058-1.388h-2.294l-4.612,16.73h6.2q.029-.694.058-1.388h2.117l.059,1.388h6.2L575.082,244Zm-.972,3.466h1.118q.081,1.93.162,3.86h-1.442q.081-1.93.162-3.859Zm-.412,9.8q.081-1.93.162-3.86h1.617q.081,1.929.162,3.86Zm0,0" transform="translate(-560.509 -240.364)" fill="#fff"/>
      </g>
    </g>
    <g transform="matrix(1, 0, 0, 1, 276, 1385)" filter="url(#Ellipse_677)">
      <g id="Ellipse_677-2" data-name="Ellipse 677" transform="translate(21 6)" fill="#fff" stroke="#752a82" stroke-width="0.5">
        <circle cx="5.5" cy="5.5" r="5.5" stroke="none"/>
        <circle cx="5.5" cy="5.5" r="5.25" fill="none"/>
      </g>
    </g>
    <g id="Group_8277" data-name="Group 8277" transform="translate(249.269 1367.4)">
      <path id="Path_5791" data-name="Path 5791" d="M138.365,29.611a2.006,2.006,0,1,0-2.006-2.006A2.011,2.011,0,0,0,138.365,29.611Z" transform="translate(-85.176 0)" fill="#782c86"/>
      <path id="Path_5792" data-name="Path 5792" d="M56.631,274.9a1.868,1.868,0,0,0-.2-.368,2.493,2.493,0,0,0-1.725-1.086.369.369,0,0,0-.254.061,2.138,2.138,0,0,1-2.522,0,.329.329,0,0,0-.254-.061,2.475,2.475,0,0,0-1.725,1.086,2.156,2.156,0,0,0-.2.368.186.186,0,0,0,.009.166,3.493,3.493,0,0,0,.236.35,3.329,3.329,0,0,0,.4.455,5.252,5.252,0,0,0,.4.35,3.994,3.994,0,0,0,4.764,0,3.85,3.85,0,0,0,.4-.35,4.04,4.04,0,0,0,.4-.455,3.07,3.07,0,0,0,.236-.35A.149.149,0,0,0,56.631,274.9Z" transform="translate(0 -243.686)" fill="#782c86"/>
    </g>
  </g>
</svg>
