<svg xmlns="http://www.w3.org/2000/svg" width="22.457" height="22.457" viewBox="0 0 22.457 22.457">
  <path id="Path_6211" data-name="Path 6211" d="M11.229,0A11.229,11.229,0,1,0,22.457,11.229,11.241,11.241,0,0,0,11.229,0ZM15.77,14.447a.468.468,0,0,1,0,.662l-.661.662a.468.468,0,0,1-.662,0l-3.218-3.218L8.01,15.77a.468.468,0,0,1-.662,0l-.661-.662a.468.468,0,0,1,0-.662l3.218-3.218L6.687,8.01a.468.468,0,0,1,0-.662l.661-.662a.468.468,0,0,1,.662,0l3.218,3.218,3.218-3.218a.468.468,0,0,1,.662,0l.661.662a.468.468,0,0,1,0,.662l-3.218,3.218Z" fill="#555b5a"/>
</svg>
