<svg xmlns="http://www.w3.org/2000/svg" width="18.218" height="17.637" viewBox="0 0 18.218 17.637">
  <path id="Path_5602" data-name="Path 5602" d="M679.989,372.607a.869.869,0,0,0-.071-1.244l-8.141-7.123a1.018,1.018,0,0,0-1.325.014l-8.168,7.49a.862.862,0,0,0-.04,1.24l.2.213a.894.894,0,0,0,1.227.1l.611-.547v8a.889.889,0,0,0,.889.889h3.183a.889.889,0,0,0,.89-.889v-5.6h4.061v5.6a.839.839,0,0,0,.836.887h3.374a.887.887,0,0,0,.889-.887v-7.892l.377.331c.207.182.644.036.974-.327Zm0,0" transform="translate(-662 -364.001)"/>
</svg>
