<svg xmlns="http://www.w3.org/2000/svg" width="24.811" height="24.811" viewBox="0 0 24.811 24.811">
  <path id="Path_5744" data-name="Path 5744" d="M532.527,232.244a9.85,9.85,0,0,1-9.839-9.839v-8.024l3.37,3.37a1.283,1.283,0,1,0,1.815-1.815l-5.561-5.561a1.283,1.283,0,0,0-1.815,0l-5.561,5.561a1.283,1.283,0,1,0,1.815,1.815l3.37-3.37v8.024a9.85,9.85,0,0,1-9.839,9.839,1.283,1.283,0,0,0,0,2.567,12.437,12.437,0,0,0,11.122-6.9,12.436,12.436,0,0,0,11.122,6.9,1.283,1.283,0,0,0,0-2.567Zm0,0" transform="translate(-509 -210)" fill="#0047ba"/>
</svg>
